<svg width="197" height="80" viewBox="0 0 197 80" fill="none" xmlns="http://www.w3.org/2000/svg">
<g id="Glasses">
<g id="Glasses_2">
<path id="Vector 265" d="M3.27643 58.1073L0 44.1504L188.063 0.00186331L191.423 14.3136L184.208 16.0073L185.874 23.1041L179.014 24.7145L180.652 31.693L173.319 33.4145L175.013 40.6295L124.507 52.4857L122.814 45.2707L115.126 47.0755L113.487 40.0971L106.272 41.7908L102.94 27.5974L88.1556 31.0682L91.4875 45.2616L84.3908 46.9276L86.029 53.9061L78.9323 55.5721L80.626 62.7871L29.8844 74.6988L28.1907 67.4838L20.9757 69.1776L19.3374 62.1991L12.1224 63.8929L10.3732 56.4413L3.27643 58.1073Z" fill="black"/>
<g id="Light">
<rect id="Rectangle 2080" x="25.4248" y="51.5823" width="7.28965" height="7.28965" transform="rotate(-13.2112 25.4248 51.5823)" fill="white"/>
<rect id="Rectangle 2121" x="116.626" y="30.8459" width="7.28965" height="7.28965" transform="rotate(-13.2112 116.626 30.8459)" fill="black"/>
<rect id="Rectangle 2086" x="23.6006" y="43.7991" width="7.28965" height="7.28965" transform="rotate(-13.2112 23.6006 43.7991)" fill="black"/>
<rect id="Rectangle 2122" x="114.802" y="23.0625" width="7.28965" height="7.28965" transform="rotate(-13.2112 114.802 23.0625)" fill="white"/>
<rect id="Rectangle 2077" x="49.9656" y="54.0369" width="7.28965" height="7.28965" transform="rotate(-13.2112 49.9656 54.0369)" fill="white"/>
<rect id="Rectangle 2123" x="141.166" y="33.3005" width="7.28965" height="7.28965" transform="rotate(-13.2112 141.166 33.3005)" fill="black"/>
<rect id="Rectangle 2081" x="48.1326" y="46.2524" width="7.28965" height="7.28965" transform="rotate(-13.2112 48.1326 46.2524)" fill="black"/>
<rect id="Rectangle 2124" x="139.334" y="25.5161" width="7.28965" height="7.28965" transform="rotate(-13.2112 139.334 25.5161)" fill="white"/>
<rect id="Rectangle 2087" x="46.3086" y="38.4661" width="7.28965" height="7.28965" transform="rotate(-13.2112 46.3086 38.4661)" fill="black"/>
<rect id="Rectangle 2125" x="137.51" y="17.7297" width="7.28965" height="7.28965" transform="rotate(-13.2112 137.51 17.7297)" fill="black"/>
<rect id="Rectangle 2094" x="69.0137" y="33.1362" width="7.28965" height="7.28965" transform="rotate(-13.2112 69.0137 33.1362)" fill="black"/>
<rect id="Rectangle 2126" x="160.214" y="12.3999" width="7.28965" height="7.28965" transform="rotate(-13.2112 160.214 12.3999)" fill="black"/>
<rect id="Rectangle 2076" x="34.8218" y="57.5908" width="7.28965" height="7.28965" transform="rotate(-13.2112 34.8218 57.5908)" fill="white"/>
<rect id="Rectangle 2127" x="126.023" y="36.8545" width="7.28965" height="7.28965" transform="rotate(-13.2112 126.023 36.8545)" fill="black"/>
<rect id="Rectangle 2082" x="32.9951" y="49.8047" width="7.28965" height="7.28965" transform="rotate(-13.2112 32.9951 49.8047)" fill="black"/>
<rect id="Rectangle 2128" x="124.196" y="29.0684" width="7.28965" height="7.28965" transform="rotate(-13.2112 124.196 29.0684)" fill="white"/>
<rect id="Rectangle 2088" x="31.1655" y="42.0229" width="7.28965" height="7.28965" transform="rotate(-13.2112 31.1655 42.0229)" fill="white"/>
<rect id="Rectangle 2129" x="122.366" y="21.2866" width="7.28965" height="7.28965" transform="rotate(-13.2112 122.366 21.2866)" fill="black"/>
<rect id="Rectangle 2078" x="57.5327" y="52.261" width="7.28965" height="7.28965" transform="rotate(-13.2112 57.5327 52.261)" fill="black"/>
<rect id="Rectangle 2130" x="148.735" y="31.5244" width="7.28965" height="7.28965" transform="rotate(-13.2112 148.735 31.5244)" fill="white"/>
<rect id="Rectangle 2119" x="65.1021" y="50.5327" width="7.28965" height="7.28965" transform="rotate(-13.2112 65.1021 50.5327)" fill="black"/>
<rect id="Rectangle 2131" x="156.303" y="29.7964" width="7.28965" height="7.28965" transform="rotate(-13.2112 156.303 29.7964)" fill="black"/>
<rect id="Rectangle 2120" x="70.8425" y="40.9705" width="7.28965" height="7.28965" transform="rotate(-13.2112 70.8425 40.9705)" fill="black"/>
<rect id="Rectangle 2132" x="162.044" y="20.2341" width="7.28965" height="7.28965" transform="rotate(-13.2112 162.044 20.2341)" fill="black"/>
<rect id="Rectangle 2083" x="55.7061" y="44.4746" width="7.28965" height="7.28965" transform="rotate(-13.2112 55.7061 44.4746)" fill="black"/>
<rect id="Rectangle 2133" x="146.907" y="23.7383" width="7.28965" height="7.28965" transform="rotate(-13.2112 146.907 23.7383)" fill="black"/>
<rect id="Rectangle 2089" x="53.876" y="36.6914" width="7.28965" height="7.28965" transform="rotate(-13.2112 53.876 36.6914)" fill="black"/>
<rect id="Rectangle 2134" x="145.077" y="15.9551" width="7.28965" height="7.28965" transform="rotate(-13.2112 145.077 15.9551)" fill="black"/>
<rect id="Rectangle 2090" x="16.0276" y="45.5737" width="7.28965" height="7.28965" transform="rotate(-13.2112 16.0276 45.5737)" fill="white"/>
<rect id="Rectangle 2135" x="107.229" y="24.8374" width="7.28965" height="7.28965" transform="rotate(-13.2112 107.229 24.8374)" fill="black"/>
<rect id="Rectangle 2079" x="42.3926" y="55.8147" width="7.28965" height="7.28965" transform="rotate(-13.2112 42.3926 55.8147)" fill="black"/>
<rect id="Rectangle 2136" x="133.593" y="35.0784" width="7.28965" height="7.28965" transform="rotate(-13.2112 133.593 35.0784)" fill="white"/>
<rect id="Rectangle 2085" x="40.5623" y="48.03" width="7.28965" height="7.28965" transform="rotate(-13.2112 40.5623 48.03)" fill="white"/>
<rect id="Rectangle 2137" x="131.764" y="27.2937" width="7.28965" height="7.28965" transform="rotate(-13.2112 131.764 27.2937)" fill="black"/>
<rect id="Rectangle 2099" x="63.2732" y="42.697" width="7.28965" height="7.28965" transform="rotate(-13.2112 63.2732 42.697)" fill="black"/>
<rect id="Rectangle 2138" x="154.474" y="21.9607" width="7.28965" height="7.28965" transform="rotate(-13.2112 154.474 21.9607)" fill="black"/>
<rect id="Rectangle 2091" x="38.7385" y="40.2437" width="7.28965" height="7.28965" transform="rotate(-13.2112 38.7385 40.2437)" fill="black"/>
<rect id="Rectangle 2139" x="129.939" y="19.5073" width="7.28965" height="7.28965" transform="rotate(-13.2112 129.939 19.5073)" fill="white"/>
<rect id="Rectangle 2100" x="61.4431" y="34.9155" width="7.28965" height="7.28965" transform="rotate(-13.2112 61.4431 34.9155)" fill="black"/>
<rect id="Rectangle 2140" x="152.644" y="14.179" width="7.28965" height="7.28965" transform="rotate(-13.2112 152.644 14.179)" fill="black"/>
</g>
</g>
</g>
</svg>
